<svg width="20" height="20" viewBox="0 0 20 20" fill="none" xmlns="http://www.w3.org/2000/svg">
<g clip-path="url(#clip0)">
<path d="M19.5516 13.7833L16.4629 10.6942C15.8477 10.0815 14.8289 10.1001 14.1923 10.737L12.6362 12.2927C12.5379 12.2385 12.4361 12.1819 12.3291 12.1219C11.3465 11.5774 10.0015 10.8311 8.58628 9.41485C7.16683 7.99557 6.41986 6.64857 5.87372 5.66528C5.81609 5.56111 5.76087 5.46067 5.70634 5.36529L6.75071 4.32247L7.26416 3.80839C7.90178 3.1706 7.91936 2.15209 7.30559 1.53757L4.2169 -1.5518C3.60313 -2.16546 2.58387 -2.14684 1.94626 -1.50905L1.07576 -0.633555L1.09955 -0.609939C0.807657 -0.237493 0.563746 0.192067 0.382234 0.655298C0.214915 1.09623 0.110743 1.517 0.0631095 1.93863C-0.344731 5.31973 1.20033 8.40979 5.39342 12.6029C11.1896 18.3987 15.8605 17.9608 16.062 17.9395C16.5009 17.887 16.9214 17.7821 17.3489 17.6161C17.8081 17.4368 18.2374 17.1932 18.6096 16.9019L18.6286 16.9188L19.5105 16.0553C20.1468 15.4176 20.1651 14.3988 19.5516 13.7833Z" fill="#2A7CF8"/>
</g>
<defs>
<clipPath id="clip0">
<rect width="20" height="20" fill="white"/>
</clipPath>
</defs>
</svg>
