<svg height="512" viewBox="0 0 64 64" width="512" xmlns="http://www.w3.org/2000/svg"><path d="m55.9 44.553a1 1 0 0 0 -.9-.553h-46a1 1 0 0 0 -.895.553l-6 12a1 1 0 0 0 -.105.447v3a2 2 0 0 0 2 2h56a2 2 0 0 0 2-2v-3a1 1 0 0 0 -.1-.447zm-46.282 1.447h44.764l5 10h-54.764zm-5.618 14v-2h56v2z"/><path d="m10 52h2v2h-2z"/><path d="m14 52h2v2h-2z"/><path d="m18 52h28v2h-28z"/><path d="m48 52h2v2h-2z"/><path d="m52 52h2v2h-2z"/><path d="m15 48h2v2h-2z"/><path d="m11 48h2v2h-2z"/><path d="m19 48h2v2h-2z"/><path d="m23 48h2v2h-2z"/><path d="m27 48h2v2h-2z"/><path d="m31 48h2v2h-2z"/><path d="m35 48h2v2h-2z"/><path d="m39 48h2v2h-2z"/><path d="m43 48h2v2h-2z"/><path d="m47 48h2v2h-2z"/><path d="m51 48h2v2h-2z"/><path d="m57 2h-50a5.006 5.006 0 0 0 -5 5v28a5.006 5.006 0 0 0 5 5h50a5.006 5.006 0 0 0 5-5v-28a5.006 5.006 0 0 0 -5-5zm-9 16h-6v-6.586l6 6zm-7 2h7v18h-32v-27a1 1 0 0 1 1-1h23v9a1 1 0 0 0 1 1zm16 18h-7v-21a1 1 0 0 0 -.293-.707l-8-8a1 1 0 0 0 -.707-.293h-24a3 3 0 0 0 -3 3v27h-7a3 3 0 0 1 -3-3v-28a3 3 0 0 1 3-3h50a3 3 0 0 1 3 3v5h-1a3 3 0 0 0 -3 3v12a3 3 0 0 0 3 3h1v5a3 3 0 0 1 -3 3zm3-24v14h-1a1 1 0 0 1 -1-1v-12a1 1 0 0 1 1-1z"/><path d="m20 18h16v2h-16z"/><path d="m20 14h4v2h-4z"/><path d="m26 14h6v2h-6z"/><path d="m20 24h24v2h-24z"/><path d="m20 28h24v2h-24z"/><path d="m20 32h24v2h-24z"/></svg>